# xmcd
#
# Track frame offsets: 
#        150
#        12208
#        25449
#        43600
#        58499
#        70191
#        83139
#        95524
#        105992
#        113467
#        129188
#        143777
#
# Disc length: 2110 seconds
#
# Revision: 1
# Processed by: cddbd v1.5.2PL0 Copyright (c) Steve Scherf et al.
# Submitted via: ExactAudioCopyFreeDBPlugin 1.0
#
DISCID=97083c0c
DTITLE=Tião Carreiro e Pardinho - Rancho dos Ipês
DYEAR=1967
DGENRE=Sertanejo
TTITLE0=Rancho dos Ipês
TTITLE1=Baiano no Côco
TTITLE2=Oswaldo Cintra
TTITLE3=Pai João
TTITLE4=Moreninha Cor de Jambo
TTITLE5=Novo Amor
TTITLE6=Ditado Sertanejo
TTITLE7=Saudade
TTITLE8=Pagode
TTITLE9=Jogador de Baralho
TTITLE10=Mariquinha
TTITLE11=Fundanga
EXTD=
EXTT0=
EXTT1=
EXTT2=
EXTT3=
EXTT4=
EXTT5=
EXTT6=
EXTT7=
EXTT8=
EXTT9=
EXTT10=
EXTT11=
PLAYORDER=
